<svg xmlns="http://www.w3.org/2000/svg" width="30" height="30" viewBox="0 0 30 30">
  <g fill="#9FACBD">
    <g transform="translate(16 15)">
      <path d="M3.5,15 L0.5,15 C0.2,15 0,14.8 0,14.5 L0,11.5 C0,11.4 0.1,11.2 0.1,11.1 L10.1,1.1 C10.3,0.9 10.6,0.9 10.8,1.1 L13.8,4.1 C14,4.3 14,4.6 13.8,4.8 L3.8,14.8 C3.8,14.9 3.6,15 3.5,15 Z M1,14 L3.3,14 L12.8,4.5 L10.5,2.2 L1,11.7 L1,14 Z"/>
      <path d="M11,7.5 C10.9,7.5 10.7,7.5 10.6,7.4 L7.6,4.4 C7.4,4.2 7.4,3.9 7.6,3.7 C7.8,3.5 8.1,3.5 8.3,3.7 L11.3,6.7 C11.5,6.9 11.5,7.2 11.3,7.4 C11.3,7.5 11.1,7.5 11,7.5 Z"/>
    </g>
    <path d="M14.5,27 L0.5,27 C0.2,27 0,26.8 0,26.5 L0,7.5 C0,7.4 0.1,7.2 0.1,7.1 L7.1,0.1 C7.2,0.1 7.4,0 7.5,0 L21.5,0 C21.8,0 22,0.2 22,0.5 L22,18.5 C22,18.8 21.8,19 21.5,19 C21.2,19 21,18.8 21,18.5 L21,1 L7.7,1 L1,7.7 L1,26 L14.5,26 C14.8,26 15,26.2 15,26.5 C15,26.8 14.8,27 14.5,27 Z"/>
    <path d="M7.5 8L.5 8C.2 8 0 7.8 0 7.5 0 7.2.2 7 .5 7L7 7 7 .5C7 .2 7.2 0 7.5 0 7.8 0 8 .2 8 .5L8 7.5C8 7.8 7.8 8 7.5 8zM8.5 14L2.5 14C2.2 14 2 13.8 2 13.5 2 13.2 2.2 13 2.5 13L8.5 13C8.8 13 9 13.2 9 13.5 9 13.8 8.8 14 8.5 14zM16.5 19L2.5 19C2.2 19 2 18.8 2 18.5 2 18.2 2.2 18 2.5 18L16.5 18C16.8 18 17 18.2 17 18.5 17 18.8 16.8 19 16.5 19zM7.5 24L2.5 24C2.2 24 2 23.8 2 23.5 2 23.2 2.2 23 2.5 23L7.5 23C7.8 23 8 23.2 8 23.5 8 23.8 7.8 24 7.5 24z"/>
    <g transform="translate(13 4)">
      <path d="M2.5,7 C1.2,7 0.1,6.3 0,5.4 C0,5.1 0.2,4.9 0.4,4.9 C0.7,4.8 1,5 1,5.3 C1,5.6 1.7,6 2.5,6 C3.3,6 4,5.6 4,5.2 C4,5 3.7,4.6 2.5,4.5 C2.5,4.5 2.4,4.5 2.4,4.5 C1.8,4.4 0,4.1 0,2.7 C0,1.7 1.1,0.9 2.5,0.9 C3.8,0.9 4.9,1.6 5,2.5 C5,2.8 4.8,3 4.6,3 C4.3,3.2 4,3 4,2.7 C4,2.4 3.3,2 2.5,2 C1.7,2 1,2.4 1,2.8 C1,3 1.3,3.4 2.5,3.5 C2.5,3.5 2.6,3.5 2.6,3.5 C3.2,3.6 5,3.9 5,5.3 C5,6.2 3.9,7 2.5,7 Z"/>
      <path d="M2.5,8 C2.2,8 2,7.8 2,7.5 L2,0.5 C2,0.2 2.2,0 2.5,0 C2.8,0 3,0.2 3,0.5 L3,7.5 C3,7.8 2.8,8 2.5,8 Z"/>
    </g>
  </g>
</svg>
