<svg xmlns="http://www.w3.org/2000/svg" width="30" height="30" viewBox="0 0 30 30">
  <g fill="#9FACBD">
    <path d="M9.5,29.5 L0.5,29.5 C0.2,29.5 0,29.3 0,29 L0,14 C0,13.7 0.2,13.5 0.5,13.5 L9.5,13.5 C9.8,13.5 10,13.7 10,14 L10,29 C10,29.3 9.8,29.5 9.5,29.5 Z M1,28.5 L9,28.5 L9,14.5 L1,14.5 L1,28.5 Z"/>
    <path d="M24.2,28.5 L13,28.5 C11.8,28.5 10,27.7 9.1,26.9 C9.1,26.8 9,26.6 9,26.5 L9,14.5 C9,14.3 9.1,14.1 9.3,14.1 L10.2,13.7 L14,5.9 L14,1.5 C14,1.3 14.1,1.2 14.3,1.1 C14.3,1.1 15.3,0.5 16.5,0.5 C18,0.5 20,3 20,5.5 C20,7.3 19.5,9.4 19.2,10.5 L26.5,10.5 C26.5,10.5 26.6,10.5 26.6,10.5 C26.7,10.5 26.8,10.5 27,10.5 C28.7,10.5 30,11.8 30,13.5 C30,14.3 29.7,15 29.2,15.5 C29.7,16 30,16.7 30,17.5 C30,18.5 29.5,19.5 28.6,20 C28.9,20.4 29,21 29,21.5 C29,22.9 28.1,24.1 26.8,24.4 C26.9,24.8 27,25.1 27,25.5 C27,27 25.9,28.3 24.4,28.5 C24.3,28.5 24.2,28.5 24.2,28.5 Z M10,26.3 C10.7,26.9 12.1,27.5 13,27.5 L24.1,27.5 C24.1,27.5 24.2,27.5 24.2,27.5 C25.2,27.4 26,26.6 26,25.5 C26,25.1 25.9,24.7 25.6,24.3 C25.5,24.1 25.5,23.9 25.5,23.8 C25.6,23.6 25.8,23.5 25.9,23.5 C25.9,23.5 25.9,23.5 25.9,23.5 C27,23.5 27.9,22.6 27.9,21.5 C27.9,21 27.7,20.5 27.4,20.2 C27.3,20.1 27.2,19.9 27.3,19.7 C27.3,19.5 27.5,19.4 27.6,19.4 C28.4,19.1 28.9,18.4 28.9,17.5 C28.9,16.9 28.6,16.3 28.1,15.9 C28,15.8 27.9,15.7 27.9,15.5 C27.9,15.3 28,15.2 28.1,15.1 C28.6,14.7 28.9,14.1 28.9,13.5 C28.9,12.4 28,11.5 26.9,11.5 C26.8,11.5 26.6,11.5 26.5,11.5 C26.4,11.5 26.3,11.5 26.2,11.5 L18.4,11.5 C18.2,11.5 18.1,11.4 18,11.3 C18,11.2 18,11 18,10.8 C18,10.8 19,7.7 19,5.5 C19,3.3 17.2,1.5 16.5,1.5 C15.9,1.5 15.3,1.7 15,1.8 L15,6 C15,6.1 15,6.2 14.9,6.2 L10.9,14.2 C10.9,14.3 10.8,14.4 10.7,14.4 L10,14.8 L10,26.3 Z"/>
  </g>
</svg>
