<?xml version="1.0" encoding="UTF-8" standalone="no"?>
<svg
   xmlns:dc="http://purl.org/dc/elements/1.1/"
   xmlns:cc="http://creativecommons.org/ns#"
   xmlns:rdf="http://www.w3.org/1999/02/22-rdf-syntax-ns#"
   xmlns:svg="http://www.w3.org/2000/svg"
   xmlns="http://www.w3.org/2000/svg"
   id="svg14"
   version="1.1"
   viewBox="0 0 30 30"
   height="30"
   width="30">
  <metadata
     id="metadata20">
    <rdf:RDF>
      <cc:Work
         rdf:about="">
        <dc:format>image/svg+xml</dc:format>
        <dc:type
           rdf:resource="http://purl.org/dc/dcmitype/StillImage" />
        <dc:title></dc:title>
      </cc:Work>
    </rdf:RDF>
  </metadata>
  <defs
     id="defs18" />
  <g
     transform="translate(1.5)"
     style="fill:#9facbd;fill-rule:evenodd"
     id="g12">
    <path
       style="fill-rule:nonzero"
       id="path2"
       d="M 24.5,30 H 2.5 C 1.121,30 0,28.878 0,27.5 V 2.5 C 0,1.122 1.121,0 2.5,0 h 22 C 25.879,0 27,1.122 27,2.5 v 25 C 27,28.878 25.879,30 24.5,30 Z M 2.5,1 C 1.673,1 1,1.673 1,2.5 v 25 C 1,28.327 1.673,29 2.5,29 h 22 C 25.327,29 26,28.327 26,27.5 V 2.5 C 26,1.673 25.327,1 24.5,1 Z" />
    <path
       style="fill-rule:nonzero"
       id="path4"
       d="M 22.5,20 H 4.5 C 4.224,20 4,19.776 4,19.5 V 4.5 C 4,4.224 4.224,4 4.5,4 h 18 C 22.776,4 23,4.224 23,4.5 v 15 C 23,19.776 22.776,20 22.5,20 Z M 5,19 H 22 V 5 H 5 Z" />
    <path
       style="fill-rule:nonzero"
       id="path6"
       d="m 16.5,15.7 c -0.143,0 -0.285,-0.061 -0.384,-0.18 L 10.5,8.781 4.884,15.52 C 4.707,15.734 4.392,15.76 4.18,15.584 3.968,15.407 3.94,15.092 4.117,14.879 l 6,-7.2 c 0.189,-0.228 0.578,-0.228 0.768,0 l 6,7.2 c 0.177,0.212 0.148,0.528 -0.063,0.705 C 16.727,15.662 16.613,15.7 16.5,15.7 Z" />
    <path
       style="fill-rule:nonzero"
       id="path8"
       d="m 22.5,17.5 c -0.136,0 -0.271,-0.055 -0.37,-0.164 l -5.647,-6.212 -1.429,1.429 c -0.195,0.195 -0.512,0.195 -0.707,0 -0.195,-0.195 -0.195,-0.512 0,-0.707 l 1.8,-1.8 C 16.243,9.95 16.38,9.899 16.512,9.9 c 0.137,0.003 0.267,0.063 0.358,0.164 l 6,6.6 c 0.186,0.205 0.171,0.521 -0.034,0.707 C 22.74,17.457 22.62,17.5 22.5,17.5 Z" />
    <path
       id="path10"
       d="m 24,22 h -9 c -2.206,0 -4,1.794 -4,4 0,2.206 1.794,4 4,4 h 6.938 c 0.276,0 0.5,-0.224 0.5,-0.5 0,-0.276 -0.224,-0.5 -0.5,-0.5 H 15 c -1.654,0 -3,-1.346 -3,-3 0,-1.654 1.346,-3 3,-3 h 9 c 1.103,0 2,0.897 2,2 0,1.103 -0.897,2 -2,2 h -8 c -0.552,0 -1,-0.449 -1,-1 0,-0.551 0.448,-1 1,-1 h 5.5 C 21.776,25 22,24.776 22,24.5 22,24.224 21.776,24 21.5,24 H 16 c -1.103,0 -2,0.897 -2,2 0,1.103 0.897,2 2,2 h 8 c 1.654,0 3,-1.346 3,-3 0,-1.654 -1.346,-3 -3,-3 z" />
  </g>
</svg>
