<?xml version="1.0" encoding="UTF-8" standalone="no"?>
<svg
   xmlns:dc="http://purl.org/dc/elements/1.1/"
   xmlns:cc="http://creativecommons.org/ns#"
   xmlns:rdf="http://www.w3.org/1999/02/22-rdf-syntax-ns#"
   xmlns:svg="http://www.w3.org/2000/svg"
   xmlns="http://www.w3.org/2000/svg"
   id="svg18"
   version="1.1"
   viewBox="0 0 30 30"
   height="30"
   width="30">
  <metadata
     id="metadata24">
    <rdf:RDF>
      <cc:Work
         rdf:about="">
        <dc:format>image/svg+xml</dc:format>
        <dc:type
           rdf:resource="http://purl.org/dc/dcmitype/StillImage" />
        <dc:title></dc:title>
      </cc:Work>
    </rdf:RDF>
  </metadata>
  <defs
     id="defs22" />
  <g
     transform="translate(0,1)"
     style="fill:#9facbd"
     id="g16">
    <path
       id="path2"
       d="m 29.5,19 h -13 C 16.2,19 16,18.8 16,18.5 16,18.2 16.2,18 16.5,18 H 29 V 1 H 2 V 13.5 C 2,13.8 1.8,14 1.5,14 1.2,14 1,13.8 1,13.5 V 0.5 C 1,0.2 1.2,0 1.5,0 h 28 C 29.8,0 30,0.2 30,0.5 v 18 c 0,0.3 -0.2,0.5 -0.5,0.5 z" />
    <g
       id="g8"
       transform="translate(12,4)">
      <path
         id="path4"
         d="M 3.5,10 C 1.9,10 0.1,9.1 0,7.7 0,7.4 0.2,7.2 0.5,7.2 0.8,7.2 1,7.4 1,7.7 c 0.1,0.7 1.3,1.4 2.5,1.4 1.1,0 2,-0.6 2,-1.5 0,-1 -1.1,-1.3 -2,-1.5 L 3.2,6 C 2.4,5.9 0,5.4 0,3.5 0,2 1.8,1 3.5,1 5.1,1 6.4,2.1 6.5,3.5 6.5,3.7 6.3,4 6,4 5.7,4 5.5,3.8 5.5,3.5 5.4,2.7 4.7,2 3.5,2 2.2,2 1,2.7 1,3.5 1,4.6 2.8,4.9 3.4,5 l 0.3,0.1 c 1.9,0.4 2.8,1.2 2.8,2.5 0,1.3 -1.3,2.4 -3,2.4 z" />
      <path
         id="path6"
         d="M 3.5,11 C 3.2,11 3,10.8 3,10.5 V 0.5 C 3,0.2 3.2,0 3.5,0 3.8,0 4,0.2 4,0.5 v 10 C 4,10.8 3.8,11 3.5,11 Z" />
    </g>
    <path
       id="path10"
       d="m 26.5,4 h -2 C 24.2,4 24,3.8 24,3.5 24,3.2 24.2,3 24.5,3 h 2 C 26.8,3 27,3.2 27,3.5 27,3.8 26.8,4 26.5,4 Z M 6.5,24 C 5.1,24 4.1,23.4 4,22.6 4,22.3 4.2,22 4.4,22 4.7,22 5,22.2 5,22.4 5,22.7 5.6,23 6.5,23 7.3,23 8,22.6 8,22.2 8,22 7.7,21.6 6.5,21.5 H 6.4 C 5.8,21.4 4,21.1 4,19.8 4,18.8 5.1,18 6.5,18 7.9,18 8.9,18.6 9,19.4 9,19.7 8.8,20 8.6,20 8.3,20 8,19.8 8,19.5 8,19.3 7.4,19 6.5,19 5.7,19 5,19.4 5,19.8 c 0,0.2 0.3,0.6 1.5,0.7 0,0 0.1,0 0.1,0 C 7.3,20.6 9,20.9 9,22.3 9,23.2 7.9,24 6.5,24 Z" />
    <path
       id="path12"
       d="M 6.5,25 C 6.2,25 6,24.8 6,24.5 v -7 C 6,17.2 6.2,17 6.5,17 6.8,17 7,17.2 7,17.5 v 7 C 7,24.8 6.8,25 6.5,25 Z" />
    <path
       id="path14"
       d="m 7,28 c -3.9,0 -7,-3.1 -7,-7 0,-3.9 3.1,-7 7,-7 3.9,0 7,3.1 7,7 0,3.9 -3.1,7 -7,7 z M 7,15 c -3.3,0 -6,2.7 -6,6 0,3.3 2.7,6 6,6 3.3,0 6,-2.7 6,-6 0,-3.3 -2.7,-6 -6,-6 z" />
  </g>
</svg>
