<svg xmlns="http://www.w3.org/2000/svg" width="43" height="7" viewBox="0 0 43 7">
  <path fill="#3075F6" fill-rule="evenodd" d="M447.969391,106.936 C446.241391,106.936 444.945391,105.64 444.945391,103.912 C444.945391,102.256 446.241391,100.96 447.969391,100.96 C449.625391,100.96 450.921391,102.256 450.921391,103.912 C450.921391,105.64 449.625391,106.936 447.969391,106.936 Z M465.753391,106.936 C464.025391,106.936 462.729391,105.64 462.729391,103.912 C462.729391,102.256 464.025391,100.96 465.753391,100.96 C467.409391,100.96 468.705391,102.256 468.705391,103.912 C468.705391,105.64 467.409391,106.936 465.753391,106.936 Z M483.537391,106.936 C481.809391,106.936 480.513391,105.64 480.513391,103.912 C480.513391,102.256 481.809391,100.96 483.537391,100.96 C485.193391,100.96 486.489391,102.256 486.489391,103.912 C486.489391,105.64 485.193391,106.936 483.537391,106.936 Z" transform="translate(-444 -100)"/>
</svg>
