<svg xmlns="http://www.w3.org/2000/svg" width="214" height="44" viewBox="0 0 214 44">
  <g fill="none" fill-rule="evenodd">
    <path fill="#9FACBD" d="M3,0 L105,0 C106.656854,0 108,1.34314575 108,3 L108,5 C108,6.65685425 106.656854,8 105,8 L3,8 C1.34314575,8 0,6.65685425 0,5 L0,3 C0,1.34314575 1.34314575,0 3,0 Z"/>
    <path fill="#D2DCE6" d="M2 18L166 18C167.104569 18 168 18.8954305 168 20L168 22C168 23.1045695 167.104569 24 166 24L2 24C.8954305 24 0 23.1045695 0 22L0 20C0 18.8954305.8954305 18 2 18zM2 38L82 38C83.1045695 38 84 38.8954305 84 40L84 42C84 43.1045695 83.1045695 44 82 44L2 44C.8954305 44 0 43.1045695 0 42L0 40C0 38.8954305.8954305 38 2 38zM2 28L212 28C213.104569 28 214 28.8954305 214 30L214 32C214 33.1045695 213.104569 34 212 34L2 34C.8954305 34 0 33.1045695 0 32L0 30C0 28.8954305.8954305 28 2 28z"/>
  </g>
</svg>
