<?xml version="1.0" encoding="iso-8859-1"?>
<!-- Generator: Adobe Illustrator 19.2.1, SVG Export Plug-In . SVG Version: 6.00 Build 0)  -->
<svg version="1.1" xmlns="http://www.w3.org/2000/svg" xmlns:xlink="http://www.w3.org/1999/xlink" x="0px" y="0px"
	 viewBox="0 0 30 30" style="enable-background:new 0 0 30 30;" xml:space="preserve">
<g id="Globe" style="fill: #04151f">
<g>
<path d="M14.5,30C6.505,30,0,23.495,0,15.5S6.505,1,14.5,1S29,7.505,29,15.5S22.495,30,14.5,30z M14.5,2C7.056,2,1,8.056,1,15.5
S7.056,29,14.5,29S28,22.944,28,15.5S21.944,2,14.5,2z"/>
</g>
<g>
<path d="M14.5,30c-4.486,0-8.137-6.505-8.137-14.5S10.014,1,14.5,1s8.137,6.505,8.137,14.5S18.986,30,14.5,30z M14.5,2
c-3.936,0-7.137,6.056-7.137,13.5S10.564,29,14.5,29s7.137-6.056,7.137-13.5S18.436,2,14.5,2z"/>
</g>
<g>
<path d="M28.5,16h-28C0.224,16,0,15.776,0,15.5S0.224,15,0.5,15h28c0.276,0,0.5,0.224,0.5,0.5S28.776,16,28.5,16z"/>
</g>
<g>
<path d="M26.62,9H2.38c-0.276,0-0.5-0.224-0.5-0.5S2.104,8,2.38,8h24.24c0.276,0,0.5,0.224,0.5,0.5S26.896,9,26.62,9z"/>
</g>
<g>
<path d="M26.62,23H2.38c-0.276,0-0.5-0.224-0.5-0.5S2.104,22,2.38,22h24.24c0.276,0,0.5,0.224,0.5,0.5S26.896,23,26.62,23z"/>
</g>
<g>
<path d="M14.5,30c-0.276,0-0.5-0.224-0.5-0.5v-28C14,1.224,14.224,1,14.5,1S15,1.224,15,1.5v28C15,29.776,14.776,30,14.5,30z"/>
</g>
</g>
</svg>
